<svg viewBox="0 0 100 100" fill="none" xmlns="http://www.w3.org/2000/svg">
  <defs>
    <!-- Main background gradient - vivid purple to magenta to orange -->
    <linearGradient id="bgGradient" x1="0%" y1="0%" x2="100%" y2="100%">
      <stop offset="0%" stop-color="#8B5CF6" />
      <stop offset="40%" stop-color="#E11D48" />
      <stop offset="100%" stop-color="#FB923C" />
    </linearGradient>
    
    <!-- Wave gradient - deep violet to hot pink -->
    <linearGradient id="waveGradient1" x1="0%" y1="0%" x2="100%" y2="100%">
      <stop offset="0%" stop-color="#7C3AED" />
      <stop offset="100%" stop-color="#F43F5E" />
    </linearGradient>
    
    <!-- Second wave - rose to orange -->
    <linearGradient id="waveGradient2" x1="0%" y1="100%" x2="100%" y2="0%">
      <stop offset="0%" stop-color="#E11D48" />
      <stop offset="100%" stop-color="#F97316" />
    </linearGradient>
    
    <mask id="centerHole">
      <rect width="100" height="100" fill="white"/>
      <circle cx="50" cy="50" r="18" fill="black"/>
    </mask>
  </defs>
  
  <!-- Base circle with gradient -->
  <circle cx="50" cy="50" r="46" fill="url(#bgGradient)" mask="url(#centerHole)" />
  
  <!-- First organic wave - flowing curve -->
  <path d="M50 4 C78 4 96 22 96 50 C96 62 90 73 80 80 C72 70 60 64 48 66 C36 68 28 60 26 48 C24 36 30 22 42 12 C45 9 48 6 50 4" fill="url(#waveGradient1)" mask="url(#centerHole)" />
  
  <!-- Second wave - adds depth -->
  <path d="M75 15 C88 25 96 40 96 55 C96 65 90 74 82 80 C74 70 62 66 50 68 C40 70 34 64 32 54 C30 44 36 32 48 24 C58 17 68 14 75 15" fill="url(#waveGradient2)" mask="url(#centerHole)" />
</svg>
